<?xml version="1.0" encoding="iso-8859-1"?>
<!-- Uploaded to: SVG Repo, www.svgrepo.com, Generator: SVG Repo Mixer Tools -->
<svg height="800px" width="800px" version="1.1" id="Layer_1" xmlns="http://www.w3.org/2000/svg" xmlns:xlink="http://www.w3.org/1999/xlink" 
	 viewBox="0 0 511.999 511.999" xml:space="preserve">
<path style="fill:#C7C5CB;" d="M484.668,296.196c-26.801-20.097-26.801-60.296,0-80.393l14.741-11.054
	c-8.243-25.369-8.12-24.989-16.363-50.359l-18.424-0.278c-33.495-0.505-57.124-33.028-47.254-65.04l5.43-17.608
	c-21.581-15.68-21.257-15.444-42.838-31.124l-15.068,10.605c-27.395,19.279-65.627,6.857-76.459-24.843l-5.959-17.436
	c-26.675,0-26.275,0-52.951,0l-5.958,17.436c-10.831,31.699-49.064,44.122-76.459,24.843L132.04,40.341
	c-21.581,15.68-21.257,15.444-42.838,31.124l5.43,17.608c9.87,32.012-13.759,64.534-47.254,65.039l-18.424,0.278
	c-8.243,25.369-8.119,24.989-16.363,50.359l14.741,11.054c26.801,20.097,26.801,60.296,0,80.393l-14.743,11.054
	c8.243,25.369,8.119,24.989,16.363,50.359l18.424,0.278c33.495,0.505,57.124,33.028,47.254,65.039l-5.428,17.609
	c21.581,15.68,21.257,15.444,42.838,31.124l15.068-10.605c27.395-19.279,65.627-6.857,76.459,24.843l5.958,17.437
	c26.675,0,26.275,0,52.951,0l5.958-17.436c10.831-31.699,49.064-44.122,76.459-24.843l15.068,10.605
	c21.581-15.68,21.257-15.444,42.838-31.124l-5.43-17.608c-9.87-32.012,13.759-64.534,47.254-65.039l18.424-0.278
	c8.243-25.369,8.119-24.989,16.363-50.359L484.668,296.196z M257.057,377.405c-67.89,0.578-123.039-54.572-122.462-122.461
	c0.56-65.918,54.431-119.788,120.349-120.349c67.89-0.578,123.039,54.572,122.462,122.461
	C376.844,322.974,322.974,376.845,257.057,377.405z"/>
<g>
	<path style="fill:#AEADB3;" d="M321.973,58.089c-14.984-4.356-27.935-15.58-33.541-31.987l-5.958-17.436
		c-14.448,0-20.956,0-28.122,0l5.958,17.436C269.292,52.388,297.112,65.397,321.973,58.089z"/>
	<path style="fill:#AEADB3;" d="M118.986,50.946c13.216,9.302,28.95,11.205,42.918,7.144c-5.12-1.506-10.117-3.851-14.796-7.144
		L132.04,40.341c-5.988,4.35-10.286,7.474-13.837,10.053L118.986,50.946z"/>
	<path style="fill:#AEADB3;" d="M484.668,215.804l14.741-11.054c-8.243-25.369-8.12-24.989-16.363-50.359l-18.424-0.278
		c-33.495-0.505-57.124-33.028-47.254-65.039l5.43-17.608c-21.581-15.68-21.257-15.444-42.838-31.124l-14.285,10.053
		c9.247,6.719,13.408,9.742,29.001,21.07l-5.43,17.608c-9.87,32.012,13.759,64.534,47.254,65.039l18.424,0.278
		c8.243,25.369,8.119,24.989,16.363,50.359l-14.741,11.054c-26.801,20.097-26.801,60.297,0,80.393l14.741,11.054
		c-8.243,25.369-8.12,24.989-16.363,50.359l-18.424,0.278c-33.495,0.505-57.124,33.028-47.254,65.039l5.43,17.608
		c-15.593,11.329-19.754,14.352-29.001,21.07l14.285,10.053c21.581-15.68,21.257-15.444,42.838-31.124l-5.43-17.608
		c-9.87-32.012,13.759-64.534,47.254-65.039l18.424-0.278c8.243-25.369,8.119-24.989,16.363-50.359l-14.741-11.054
		C457.867,276.101,457.867,235.901,484.668,215.804z"/>
	<path style="fill:#AEADB3;" d="M118.986,461.055l-0.783,0.551c3.551,2.58,7.849,5.703,13.837,10.053l15.068-10.605
		c4.678-3.292,9.676-5.639,14.796-7.144C147.936,449.85,132.202,451.754,118.986,461.055z"/>
	<path style="fill:#AEADB3;" d="M260.311,485.898l-5.958,17.436c7.166,0,13.674,0,28.122,0l5.958-17.436
		c5.605-16.407,18.557-27.63,33.541-31.987C297.112,446.603,269.292,459.612,260.311,485.898z"/>
</g>
<path style="fill:#D8D8DA;" d="M255.999,95.906c-88.418,0-160.094,71.676-160.094,160.094s71.676,160.094,160.094,160.094
	S416.093,344.418,416.093,256S344.417,95.906,255.999,95.906z M257.057,377.405c-67.89,0.578-123.039-54.572-122.462-122.461
	c0.56-65.918,54.431-119.788,120.349-120.349c67.89-0.578,123.039,54.572,122.462,122.461
	C376.844,322.974,322.974,376.845,257.057,377.405z"/>
<g>
	<path style="fill:#1A1A1A;" d="M95.695,253.407c-4.782,0.178-8.516,4.2-8.337,8.983c1.629,43.725,19.895,84.577,51.432,115.027
		c31.619,30.53,73.244,47.343,117.208,47.343c93.055,0,168.76-75.705,168.76-168.76S349.054,87.24,255.999,87.24
		c-40.2,0-79.139,14.372-109.646,40.468c-30.169,25.807-50.35,61.473-56.824,100.429c-0.785,4.721,2.407,9.185,7.128,9.969
		c4.717,0.789,9.185-2.406,9.969-7.128c12.173-73.245,74.993-126.406,149.372-126.406c83.498,0,151.428,67.93,151.428,151.428
		s-67.93,151.428-151.428,151.428c-81.81,0-148.278-63.992-151.321-145.684C104.5,256.961,100.489,253.211,95.695,253.407z"/>
	<path style="fill:#1A1A1A;" d="M504.609,300.318l-14.743-11.054c-10.57-7.927-16.633-20.051-16.633-33.264
		c0-13.213,6.063-25.337,16.634-33.264l14.741-11.054c2.965-2.223,4.189-6.087,3.042-9.611l-16.363-50.358
		c-1.145-3.525-4.406-5.931-8.111-5.988l-18.424-0.278c-7.813-0.119-15.357-2.38-21.819-6.54c-4.021-2.591-9.386-1.429-11.978,2.594
		c-2.592,4.025-1.429,9.387,2.594,11.978c9.187,5.916,19.886,9.131,30.94,9.298l12.228,0.185l12.533,38.572l-9.785,7.336
		c-14.977,11.231-23.567,28.408-23.567,47.13c0,18.721,8.59,35.899,23.567,47.13l9.785,7.337L476.72,349.04l-12.228,0.185
		c-18.719,0.282-35.765,9.131-46.769,24.275c-11.004,15.146-14.152,34.092-8.636,51.982l3.604,11.686l-32.811,23.839l-10.001-7.038
		c-15.31-10.775-34.302-13.635-52.107-7.85c-17.805,5.785-31.487,19.263-37.54,36.977l-3.954,11.573h-40.557l-3.954-11.572
		c-6.053-17.716-19.737-31.194-37.54-36.978c-17.806-5.787-36.797-2.923-52.106,7.85l-10.001,7.038l-32.812-23.839l3.603-11.686
		c5.516-17.89,2.369-36.836-8.635-51.982c-11.004-15.145-28.05-23.994-46.77-24.276l-12.228-0.185l-12.533-38.572l9.785-7.337
		c14.977-11.231,23.567-28.41,23.567-47.13s-8.591-35.898-23.567-47.129l-9.785-7.337l12.533-38.572l12.228-0.185
		c18.719-0.282,35.765-9.131,46.769-24.276c11.004-15.145,14.151-34.092,8.635-51.981l-3.603-11.686l32.812-23.838l10.001,7.038
		c15.31,10.774,34.302,13.635,52.106,7.851c17.805-5.785,31.488-19.263,37.54-36.978l3.955-11.572h40.557l3.954,11.573
		c6.052,17.716,19.735,31.193,37.54,36.978c17.806,5.783,36.797,2.924,52.107-7.85l10.001-7.038l32.811,23.838l-3.603,11.686
		c-3.808,12.352-3.517,25.252,0.842,37.302c1.628,4.501,6.595,6.83,11.097,5.201c4.501-1.628,6.83-6.597,5.201-11.097
		c-3.068-8.481-3.269-17.575-0.578-26.3l5.428-17.608c1.092-3.542-0.189-7.386-3.188-9.564l-42.838-31.124
		c-2.998-2.178-7.051-2.209-10.081-0.075L359.903,43.86c-10.805,7.604-24.208,9.625-36.776,5.54
		c-12.566-4.083-22.222-13.595-26.495-26.097l-5.958-17.437C289.477,2.357,286.181,0,282.475,0h-52.951
		c-3.707,0-7.002,2.357-8.2,5.864L215.366,23.3c-4.272,12.503-13.929,22.015-26.495,26.099c-12.563,4.083-25.97,2.064-36.775-5.54
		l-15.07-10.604c-3.031-2.133-7.083-2.103-10.081,0.076L84.108,64.453c-2.998,2.178-4.28,6.022-3.188,9.564l5.428,17.609
		c3.893,12.626,1.672,25.998-6.094,36.687c-7.767,10.689-19.798,16.933-33.008,17.133l-18.424,0.278
		c-3.706,0.055-6.965,2.462-8.111,5.988L4.347,202.071c-1.145,3.525,0.077,7.388,3.042,9.611l14.741,11.054
		c10.57,7.927,16.634,20.051,16.634,33.262c0,13.213-6.063,25.337-16.633,33.264L7.39,300.318c-2.965,2.223-4.189,6.087-3.042,9.611
		l16.363,50.359c1.145,3.524,4.406,5.931,8.111,5.986l18.424,0.277c13.212,0.2,25.242,6.444,33.008,17.133
		c7.766,10.689,9.988,24.062,6.094,36.688l-5.428,17.608c-1.092,3.542,0.189,7.386,3.188,9.564l42.838,31.124
		c2.998,2.178,7.051,2.209,10.081,0.075l15.068-10.604c10.805-7.604,24.209-9.623,36.775-5.54
		c12.566,4.083,22.223,13.595,26.495,26.099l5.958,17.436c1.198,3.508,4.495,5.864,8.2,5.864h52.951c3.707,0,7.002-2.357,8.2-5.864
		l5.958-17.436c4.272-12.502,13.929-22.015,26.495-26.097c12.566-4.083,25.97-2.064,36.776,5.54l15.068,10.605
		c3.031,2.133,7.082,2.103,10.081-0.075l42.838-31.125c2.998-2.178,4.28-6.022,3.188-9.564l-5.43-17.608
		c-3.893-12.627-1.671-25.999,6.095-36.688c7.767-10.689,19.798-16.933,33.008-17.133l18.424-0.277
		c3.707-0.055,6.966-2.462,8.111-5.986l16.363-50.359C508.797,306.405,507.574,302.541,504.609,300.318z"/>
	<path style="fill:#1A1A1A;" d="M255.987,386.076c0.38,0,0.763-0.001,1.143-0.005c70.499-0.601,128.34-58.444,128.941-128.941
		c0.298-35.177-13.23-68.244-38.095-93.109c-24.595-24.595-57.213-38.097-91.964-38.097c-0.379,0-0.764,0.001-1.144,0.005
		c-70.499,0.6-128.34,58.442-128.941,128.94c-0.298,35.177,13.23,68.244,38.095,93.109
		C188.618,372.574,221.236,386.077,255.987,386.076z M255.017,143.261c30.463-0.29,59.153,11.466,80.704,33.018
		c21.552,21.551,33.277,50.213,33.019,80.705c-0.52,61.102-50.653,111.237-111.757,111.758
		c-30.534,0.223-59.153-11.467-80.704-33.018c-21.552-21.551-33.278-50.213-33.019-80.705
		C143.78,193.914,193.914,143.781,255.017,143.261z"/>
</g>
</svg>